<!DOCTYPE svg PUBLIC "-//W3C//DTD SVG 1.1//EN" "http://www.w3.org/Graphics/SVG/1.1/DTD/svg11.dtd">
<!-- Uploaded to: SVG Repo, www.svgrepo.com, Transformed by: SVG Repo Mixer Tools -->
<svg fill="#ff5900" version="1.1" id="Capa_1" xmlns="http://www.w3.org/2000/svg" xmlns:xlink="http://www.w3.org/1999/xlink" width="256px" height="256px" viewBox="0 0 60.49 60.49" xml:space="preserve" stroke="#ff5900" stroke-width="0.00060495">
<g id="SVGRepo_bgCarrier" stroke-width="0">
<rect x="0" y="0" width="60.49" height="60.49" rx="0" fill="#ffffff" strokewidth="0"/>
</g>
<g id="SVGRepo_tracerCarrier" stroke-linecap="round" stroke-linejoin="round" stroke="#ffffff" stroke-width="1.8148499999999999"/>
<g id="SVGRepo_iconCarrier"> <g> <g> <path d="M24.166,45.714h14.667c0.008,0,0.019,0,0.021,0c0.011,0,0.021-0.006,0.026-0.008c0.095-0.004,0.187-0.022,0.275-0.056 c0.049-0.016,0.094-0.03,0.139-0.053c0.004-0.002,0.009-0.002,0.011-0.004l14.334-7.658c0,0,0,0,0.002,0l6.332-3.399 c0.004-0.002,0.006-0.006,0.008-0.008c0.008-0.005,0.017-0.005,0.021-0.009c0.055-0.03,0.088-0.08,0.135-0.121 c0.051-0.043,0.109-0.079,0.15-0.133c0.037-0.051,0.057-0.104,0.084-0.16c0.029-0.062,0.068-0.114,0.088-0.18 c0.018-0.063,0.014-0.123,0.02-0.188c0.006-0.063,0.021-0.131,0.016-0.195c-0.01-0.064-0.039-0.131-0.061-0.191 c-0.02-0.059-0.021-0.117-0.053-0.172c-0.004-0.004-0.008-0.01-0.01-0.014c-0.004-0.006-0.002-0.012-0.006-0.018l-6.334-10.94 c-0.029-0.051-0.074-0.083-0.111-0.127c-0.043-0.053-0.082-0.111-0.135-0.153c-0.049-0.038-0.104-0.059-0.158-0.088 c-0.061-0.031-0.115-0.069-0.181-0.087c-0.062-0.018-0.124-0.016-0.188-0.022c-0.062-0.006-0.125-0.02-0.188-0.013 c-0.065,0.007-0.131,0.035-0.194,0.056c-0.056,0.017-0.11,0.019-0.164,0.046l-6.832,3.5c-0.01,0.004-0.014,0.013-0.021,0.017 c-0.01,0.005-0.021,0.004-0.027,0.009l-13.836,8.085c-0.008,0.006-0.012,0.014-0.02,0.018c-0.095,0.062-0.186,0.129-0.256,0.223 l-8.333,10.416c-0.239,0.303-0.286,0.713-0.12,1.061C23.433,45.491,23.783,45.714,24.166,45.714z M27.138,42.602l0.708,1.112 h-1.598L27.138,42.602z M33.501,34.87l12.504-7.307l1.447,2.296l-12.188,6.196h-1.763V34.87L33.501,34.87z M48.523,26.213 l5.769,9.102l-0.774,0.418l-5.752-9.127L48.523,26.213z M52.775,24.035l5.343,9.227l-2.062,1.104l-5.746-9.069L52.775,24.035z M36.501,37.669l12.021-6.108l0.66,1.049l-12.127,6c-0.358,0.178-0.561,0.545-0.553,0.922l-0.006-0.002v-1.857H36.5L36.501,37.669 L36.501,37.669z M38.296,41.191c0.091-0.313,0.002-0.631-0.188-0.875l12.146-6.008l1.492,2.369l-12.994,6.941l-1.037-0.369 L38.296,41.191z M32.501,38.055h2v2.157c0,0.414,0.254,0.783,0.642,0.935l0.983,0.381l-0.588,2.082 c-0.013,0.035-0.021,0.068-0.022,0.104h-5.297l-1.758-2.764l3.045-3.807C31.548,37.653,31.977,38.055,32.501,38.055z"/> <path d="M28.666,31.635c0,0.553,0.447,1,1,1c0.553,0,1-0.447,1-1V15.781c0-0.553-0.447-1-1-1H1c-0.553,0-1,0.447-1,1v28.933 c0,0.554,0.447,1,1,1h18.167c0.553,0,1-0.446,1-1c0-0.555-0.447-1-1-1H2V28.046h26.667L28.666,31.635L28.666,31.635z M28.666,22.705H2v-5.926h26.667L28.666,22.705L28.666,22.705z M2,26.046v-1.34h26.667v1.34H2z"/> <path d="M18,21.629h3c0.553,0,1-0.447,1-1c0-0.553-0.447-1-1-1h-3c-0.553,0-1,0.447-1,1C17,21.183,17.448,21.629,18,21.629z"/> <path d="M17,30.632H5.333c-0.553,0-1,0.447-1,1c0,0.556,0.447,1,1,1h11.666c0.553,0,1-0.444,1-1 C17.999,31.079,17.553,30.632,17,30.632z"/> <path d="M17,33.635H5.333c-0.553,0-1,0.444-1,1c0,0.553,0.447,1,1,1h11.666c0.553,0,1-0.447,1-1 C17.999,34.079,17.553,33.635,17,33.635z"/> <path d="M17,36.635H5.333c-0.553,0-1,0.444-1,1c0,0.553,0.447,1,1,1h11.666c0.553,0,1-0.447,1-1 C17.999,37.079,17.553,36.635,17,36.635z"/> </g> </g> </g>
</svg>